<svg width="36" height="36" viewBox="0 0 36 36" fill="none" xmlns="http://www.w3.org/2000/svg">
<circle cx="18" cy="18" r="18" fill="white"/>
<path d="M25.478 18.54C25.518 18.24 25.538 17.93 25.538 17.6C25.538 17.28 25.518 16.96 25.468 16.66L27.498 15.08C27.678 14.94 27.728 14.67 27.618 14.47L25.698 11.15C25.578 10.93 25.328 10.86 25.108 10.93L22.718 11.89C22.218 11.51 21.688 11.19 21.098 10.95L20.738 8.41C20.698 8.17 20.498 8 20.258 8H16.418C16.178 8 15.988 8.17 15.948 8.41L15.588 10.95C14.998 11.19 14.458 11.52 13.968 11.89L11.578 10.93C11.358 10.85 11.108 10.93 10.988 11.15L9.078 14.47C8.958 14.68 8.998 14.94 9.198 15.08L11.228 16.66C11.178 16.96 11.138 17.29 11.138 17.6C11.138 17.91 11.158 18.24 11.208 18.54L9.178 20.12C8.998 20.26 8.948 20.53 9.058 20.73L10.978 24.05C11.098 24.27 11.348 24.34 11.568 24.27L13.958 23.31C14.458 23.69 14.988 24.01 15.578 24.25L15.938 26.79C15.988 27.03 16.178 27.2 16.418 27.2H20.258C20.498 27.2 20.698 27.03 20.728 26.79L21.088 24.25C21.678 24.01 22.218 23.69 22.708 23.31L25.098 24.27C25.318 24.35 25.568 24.27 25.688 24.05L27.608 20.73C27.728 20.51 27.678 20.26 27.488 20.12L25.478 18.54ZM18.338 21.2C16.358 21.2 14.738 19.58 14.738 17.6C14.738 15.62 16.358 14 18.338 14C20.318 14 21.938 15.62 21.938 17.6C21.938 19.58 20.318 21.2 18.338 21.2Z" fill="#D4D4D4"/>
</svg>
