<svg width="24" height="17" viewBox="0 0 24 17" fill="none" xmlns="http://www.w3.org/2000/svg">
<path d="M17.4 8.25C19.056 8.25 20.388 6.93 20.388 5.30357C20.388 3.67714 19.056 2.35714 17.4 2.35714C15.744 2.35714 14.4 3.67714 14.4 5.30357C14.4 6.93 15.744 8.25 17.4 8.25ZM8.4 7.07143C10.392 7.07143 11.988 5.49214 11.988 3.53571C11.988 1.57929 10.392 0 8.4 0C6.408 0 4.8 1.57929 4.8 3.53571C4.8 5.49214 6.408 7.07143 8.4 7.07143ZM17.4 10.6071C15.204 10.6071 10.8 11.6914 10.8 13.8482V16.5H24V13.8482C24 11.6914 19.596 10.6071 17.4 10.6071ZM8.4 9.42857C5.604 9.42857 0 10.8075 0 13.5536V16.5H8.4V13.8482C8.4 12.8464 8.796 11.0904 11.244 9.75857C10.2 9.54643 9.192 9.42857 8.4 9.42857Z" fill="#45B649"/>
</svg>
