<svg width="164" height="30" viewBox="0 0 164 30" fill="none" xmlns="http://www.w3.org/2000/svg">
<path d="M42.5058 8V19.1947C42.5058 19.8216 42.6082 20.2677 42.8129 20.533C43.0176 20.7982 43.3368 20.9309 43.7703 20.9309C44.0232 20.9309 44.2219 20.9188 44.3665 20.8947C44.523 20.8585 44.6856 20.7982 44.8542 20.7138L44.8 21.166C44.6675 21.2262 44.511 21.2745 44.3303 21.3106C44.1497 21.3589 43.9389 21.383 43.6981 21.383C43.132 21.383 42.7045 21.2142 42.4155 20.8766C42.1385 20.5269 42 19.9723 42 19.2128V8H42.5058Z" fill="black"/>
<path d="M50.0778 21.383C49.2589 21.383 48.5303 21.1961 47.892 20.8223C47.2537 20.4486 46.7479 19.9121 46.3746 19.2128C46.0133 18.5014 45.8327 17.6574 45.8327 16.6809C45.8327 15.7043 46.0133 14.8663 46.3746 14.167C46.7359 13.4557 47.2236 12.9131 47.8378 12.5394C48.4641 12.1656 49.1626 11.9787 49.9333 11.9787C51.1376 11.9787 52.077 12.3766 52.7514 13.1723C53.4378 13.9681 53.7811 15.0411 53.7811 16.3915C53.7811 16.4879 53.7751 16.5844 53.763 16.6809H46.3385C46.3385 17.573 46.495 18.3387 46.8081 18.9777C47.1333 19.6046 47.5729 20.0869 48.1269 20.4245C48.6929 20.7621 49.3372 20.9309 50.0598 20.9309C50.7824 20.9309 51.4267 20.7621 51.9927 20.4245C52.5587 20.0869 52.9923 19.6227 53.2933 19.0319L53.6907 19.2489C53.3656 19.9121 52.8839 20.4365 52.2456 20.8223C51.6073 21.1961 50.8847 21.383 50.0778 21.383ZM49.9333 12.4128C48.9699 12.4128 48.1509 12.7504 47.4765 13.4255C46.8142 14.1007 46.4408 15.0351 46.3565 16.2287H53.3114C53.2753 15.0833 52.9682 14.161 52.3901 13.4617C51.812 12.7624 50.9931 12.4128 49.9333 12.4128Z" fill="black"/>
<path d="M61.9642 15.1617C61.9642 14.3177 61.7293 13.6486 61.2597 13.1543C60.79 12.6599 60.1156 12.4128 59.2364 12.4128C58.5018 12.4128 57.8635 12.5755 57.3216 12.9011C56.7917 13.2266 56.3943 13.7511 56.1293 14.4745L55.7319 14.2032C55.9969 13.4557 56.4304 12.9011 57.0326 12.5394C57.6468 12.1656 58.3874 11.9787 59.2545 11.9787C60.2541 11.9787 61.0369 12.25 61.6029 12.7926C62.181 13.3351 62.47 14.1067 62.47 15.1074V19.7191C62.47 20.5149 62.8012 20.9128 63.4635 20.9128C63.7285 20.9128 63.9392 20.8645 64.0958 20.7681L64.0597 21.184C63.867 21.2926 63.6321 21.3468 63.3552 21.3468C63.1384 21.3468 62.9216 21.2986 62.7048 21.2021C62.4881 21.1177 62.3074 20.955 62.1629 20.7138C62.0304 20.4606 61.9642 20.105 61.9642 19.6468V19.4479C61.7715 19.894 61.4945 20.2617 61.1332 20.5511C60.7719 20.8284 60.3564 21.0394 59.8868 21.184C59.4291 21.3167 58.9715 21.383 58.5139 21.383C57.6227 21.383 56.9121 21.1901 56.3822 20.8043C55.8644 20.4184 55.6055 19.8578 55.6055 19.1223C55.6055 18.4472 55.8282 17.9167 56.2738 17.5309C56.7315 17.133 57.3758 16.8557 58.2068 16.6989L61.9642 15.9574V15.1617ZM56.1293 19.0862C56.1293 19.677 56.3401 20.1351 56.7616 20.4606C57.1831 20.7741 57.7913 20.9309 58.5861 20.9309C58.9354 20.9309 59.3027 20.8826 59.688 20.7862C60.0855 20.6777 60.4528 20.5149 60.79 20.2979C61.1392 20.0688 61.4222 19.7794 61.639 19.4298C61.8558 19.0681 61.9642 18.6401 61.9642 18.1457V16.3915L58.4958 17.0787C56.9181 17.3801 56.1293 18.0493 56.1293 19.0862Z" fill="black"/>
<path d="M69.287 21.383C68.468 21.383 67.7455 21.1961 67.1192 20.8223C66.505 20.4486 66.0233 19.9121 65.6741 19.2128C65.3248 18.5014 65.1502 17.6574 65.1502 16.6809C65.1502 15.6922 65.3248 14.8482 65.6741 14.1489C66.0353 13.4496 66.5291 12.9131 67.1554 12.5394C67.7816 12.1656 68.4982 11.9787 69.305 11.9787C70.1601 11.9787 70.9007 12.2138 71.527 12.684C72.1532 13.1422 72.5868 13.7872 72.8276 14.6191V8H73.3334V21.2021H72.8638L72.8457 18.6702C72.6169 19.5383 72.1773 20.2074 71.527 20.6777C70.8887 21.1479 70.142 21.383 69.287 21.383ZM69.3412 20.9309C70.0156 20.9309 70.6177 20.7621 71.1476 20.4245C71.6775 20.0748 72.087 19.5805 72.376 18.9415C72.6771 18.2904 72.8276 17.5309 72.8276 16.6628C72.8276 15.7947 72.6771 15.0472 72.376 14.4202C72.087 13.7812 71.6775 13.2869 71.1476 12.9372C70.6298 12.5876 70.0336 12.4128 69.3592 12.4128C68.2392 12.4128 67.342 12.7926 66.6676 13.5521C65.9932 14.2996 65.656 15.3426 65.656 16.6809C65.656 18.0191 65.9932 19.0621 66.6676 19.8096C67.342 20.5571 68.2332 20.9309 69.3412 20.9309Z" fill="black"/>
<path d="M80.0855 21.383C79.2666 21.383 78.538 21.1961 77.8997 20.8223C77.2614 20.4486 76.7556 19.9121 76.3823 19.2128C76.021 18.5014 75.8403 17.6574 75.8403 16.6809C75.8403 15.7043 76.021 14.8663 76.3823 14.167C76.7436 13.4557 77.2313 12.9131 77.8455 12.5394C78.4717 12.1656 79.1702 11.9787 79.941 11.9787C81.1453 11.9787 82.0846 12.3766 82.7591 13.1723C83.4455 13.9681 83.7887 15.0411 83.7887 16.3915C83.7887 16.4879 83.7827 16.5844 83.7707 16.6809H76.3461C76.3461 17.573 76.5027 18.3387 76.8158 18.9777C77.141 19.6046 77.5805 20.0869 78.1345 20.4245C78.7006 20.7621 79.3449 20.9309 80.0674 20.9309C80.79 20.9309 81.4343 20.7621 82.0003 20.4245C82.5664 20.0869 82.9999 19.6227 83.301 19.0319L83.6984 19.2489C83.3733 19.9121 82.8915 20.4365 82.2533 20.8223C81.615 21.1961 80.8924 21.383 80.0855 21.383ZM79.941 12.4128C78.9775 12.4128 78.1586 12.7504 77.4842 13.4255C76.8218 14.1007 76.4485 15.0351 76.3642 16.2287H83.3191C83.2829 15.0833 82.9758 14.161 82.3978 13.4617C81.8197 12.7624 81.0008 12.4128 79.941 12.4128Z" fill="black"/>
<path d="M86.2634 21.2021V12.1596H86.7151L86.7512 14.3479C86.9559 13.6727 87.3172 13.1121 87.8351 12.666C88.3529 12.2078 88.9731 11.9787 89.6957 11.9787C89.9848 11.9787 90.2256 12.0149 90.4183 12.0872C90.623 12.1596 90.7916 12.25 90.9241 12.3585L90.7435 12.7926C90.623 12.684 90.4845 12.5996 90.328 12.5394C90.1714 12.467 89.9306 12.4309 89.6054 12.4309C89.0755 12.4309 88.5938 12.5996 88.1602 12.9372C87.7387 13.2628 87.4015 13.6968 87.1486 14.2394C86.8957 14.7819 86.7693 15.3727 86.7693 16.0117V21.2021H86.2634Z" fill="black"/>
<path d="M95.3101 21.383C94.3828 21.383 93.5759 21.2021 92.8895 20.8404C92.2151 20.4667 91.7695 19.9181 91.5527 19.1947L92.0043 18.9234C92.185 19.5865 92.5703 20.0869 93.1605 20.4245C93.7626 20.7621 94.5033 20.9309 95.3824 20.9309C96.2736 20.9309 96.9841 20.75 97.514 20.3883C98.0439 20.0266 98.3089 19.5383 98.3089 18.9234C98.3089 18.5014 98.1704 18.1457 97.8934 17.8564C97.6284 17.567 97.1286 17.344 96.394 17.1872L94.3166 16.7351C93.4736 16.5543 92.8714 16.2709 92.5101 15.8851C92.1488 15.4872 91.9682 15.023 91.9682 14.4926C91.9682 14.0223 92.1127 13.6004 92.4017 13.2266C92.6908 12.8408 93.0882 12.5394 93.594 12.3223C94.0998 12.0933 94.6839 11.9787 95.3463 11.9787C96.2615 11.9787 97.0082 12.1596 97.5863 12.5213C98.1643 12.883 98.5497 13.4376 98.7424 14.1851L98.3089 14.4564C98.1403 13.7571 97.797 13.2447 97.2792 12.9191C96.7734 12.5816 96.1291 12.4128 95.3463 12.4128C94.5033 12.4128 93.8108 12.6057 93.2688 12.9915C92.7389 13.3773 92.474 13.8535 92.474 14.4202C92.474 14.8422 92.6125 15.216 92.8895 15.5415C93.1785 15.855 93.6723 16.0901 94.3708 16.2468L96.5024 16.717C97.3454 16.8979 97.9415 17.1691 98.2908 17.5309C98.64 17.8926 98.8147 18.3447 98.8147 18.8872C98.8147 19.6589 98.4955 20.2677 97.8572 20.7138C97.231 21.1599 96.382 21.383 95.3101 21.383Z" fill="black"/>
<path d="M101.258 21.2021V8H101.764V14.3479C101.981 13.6486 102.415 13.0759 103.065 12.6298C103.715 12.1837 104.48 11.9606 105.359 11.9606C106.383 11.9606 107.202 12.25 107.816 12.8287C108.442 13.3954 108.755 14.2092 108.755 15.2702V21.184H108.249V15.3968C108.249 14.4202 107.978 13.6787 107.437 13.1723C106.895 12.666 106.178 12.4128 105.287 12.4128C104.637 12.4128 104.04 12.5635 103.498 12.8649C102.969 13.1663 102.547 13.5823 102.234 14.1128C101.921 14.6312 101.764 15.216 101.764 15.867V21.2021H101.258Z" fill="black"/>
<path d="M112.026 10.3872C111.869 10.3872 111.736 10.339 111.628 10.2426C111.532 10.1461 111.484 10.0195 111.484 9.86277C111.484 9.70603 111.532 9.57943 111.628 9.48298C111.736 9.38653 111.869 9.3383 112.026 9.3383C112.17 9.3383 112.29 9.38653 112.387 9.48298C112.495 9.57943 112.549 9.70603 112.549 9.86277C112.549 10.0195 112.495 10.1461 112.387 10.2426C112.29 10.339 112.17 10.3872 112.026 10.3872ZM112.278 12.1596V21.2021H111.773V12.1596H112.278Z" fill="black"/>
<path d="M115.407 25V12.1596H115.876L115.894 14.6372C116.135 13.8053 116.581 13.1543 117.231 12.684C117.882 12.2138 118.64 11.9787 119.507 11.9787C120.314 11.9787 121.025 12.1656 121.639 12.5394C122.253 12.9131 122.729 13.4496 123.066 14.1489C123.415 14.8482 123.59 15.6922 123.59 16.6809C123.59 17.6574 123.415 18.5014 123.066 19.2128C122.729 19.9121 122.253 20.4486 121.639 20.8223C121.025 21.1961 120.314 21.383 119.507 21.383C118.64 21.383 117.882 21.1539 117.231 20.6957C116.593 20.2376 116.153 19.5926 115.913 18.7606V25H115.407ZM119.435 20.9309C120.543 20.9309 121.428 20.5571 122.091 19.8096C122.753 19.0621 123.084 18.0191 123.084 16.6809C123.084 15.3426 122.753 14.2996 122.091 13.5521C121.44 12.7926 120.555 12.4128 119.435 12.4128C118.761 12.4128 118.159 12.5876 117.629 12.9372C117.099 13.2869 116.677 13.7812 116.364 14.4202C116.063 15.0592 115.913 15.8128 115.913 16.6809C115.913 17.5489 116.063 18.3025 116.364 18.9415C116.665 19.5805 117.081 20.0748 117.611 20.4245C118.14 20.7621 118.749 20.9309 119.435 20.9309Z" fill="black"/>
<path d="M137.532 12.1596H139.627L136.592 21.2021H134.479L132.203 14.4926L130.053 21.2021H127.939L124.923 12.1596H127L129.059 19.3032L131.299 12.1596H133.232L135.472 19.3032L137.532 12.1596Z" fill="black"/>
<path d="M142.472 10.6404C142.05 10.6404 141.725 10.5379 141.496 10.333C141.28 10.116 141.171 9.81454 141.171 9.42872C141.171 9.04291 141.28 8.74752 141.496 8.54255C141.725 8.33759 142.05 8.23511 142.472 8.23511C142.881 8.23511 143.194 8.33759 143.411 8.54255C143.64 8.74752 143.754 9.04291 143.754 9.42872C143.754 9.81454 143.64 10.116 143.411 10.333C143.194 10.5379 142.881 10.6404 142.472 10.6404ZM143.429 12.1596V21.2021H141.496V12.1596H143.429Z" fill="black"/>
<path d="M149.886 21.383C148.983 21.383 148.158 21.2082 147.411 20.8585C146.664 20.5089 146.074 20.0145 145.641 19.3755L146.977 18.2181C147.242 18.7124 147.622 19.1103 148.115 19.4117C148.621 19.7011 149.223 19.8457 149.922 19.8457C150.476 19.8457 150.915 19.7493 151.241 19.5564C151.566 19.3635 151.728 19.0922 151.728 18.7426C151.728 18.5135 151.65 18.3145 151.494 18.1457C151.349 17.9649 151.066 17.8262 150.644 17.7298L148.748 17.3319C147.784 17.139 147.098 16.8255 146.688 16.3915C146.279 15.9574 146.074 15.4149 146.074 14.7638C146.074 14.2695 146.219 13.8113 146.508 13.3894C146.809 12.9674 147.236 12.6298 147.79 12.3766C148.344 12.1113 149.013 11.9787 149.795 11.9787C150.687 11.9787 151.451 12.1415 152.09 12.467C152.74 12.7805 153.234 13.2326 153.571 13.8234L152.234 14.9447C151.993 14.4624 151.65 14.1067 151.204 13.8777C150.771 13.6365 150.313 13.516 149.832 13.516C149.241 13.516 148.784 13.6245 148.459 13.8415C148.146 14.0465 147.989 14.3177 147.989 14.6553C147.989 14.8844 148.079 15.0954 148.26 15.2883C148.441 15.4691 148.766 15.6078 149.235 15.7043L151.295 16.1383C152.162 16.3071 152.77 16.5965 153.119 17.0064C153.481 17.4043 153.661 17.8926 153.661 18.4713C153.661 19.3394 153.324 20.0447 152.65 20.5872C151.975 21.1177 151.054 21.383 149.886 21.383Z" fill="black"/>
<path d="M159.972 21.383C159.068 21.383 158.274 21.1961 157.587 20.8223C156.913 20.4486 156.383 19.9121 155.997 19.2128C155.612 18.5014 155.419 17.6574 155.419 16.6809C155.419 15.7043 155.606 14.8663 155.979 14.167C156.365 13.4557 156.889 12.9131 157.551 12.5394C158.225 12.1656 158.996 11.9787 159.863 11.9787C160.742 11.9787 161.489 12.1596 162.103 12.5213C162.717 12.883 163.187 13.3773 163.512 14.0043C163.837 14.6312 164 15.3426 164 16.1383C164 16.3674 163.994 16.5784 163.982 16.7713C163.97 16.9642 163.952 17.1269 163.928 17.2596H157.316C157.4 18.1035 157.671 18.7486 158.129 19.1947C158.599 19.6287 159.201 19.8457 159.935 19.8457C160.538 19.8457 161.025 19.7312 161.399 19.5021C161.772 19.273 162.067 18.9535 162.284 18.5436L163.819 19.267C163.506 19.9301 163.006 20.4486 162.32 20.8223C161.646 21.1961 160.863 21.383 159.972 21.383ZM159.827 13.516C159.165 13.516 158.617 13.7089 158.183 14.0947C157.762 14.4805 157.491 15.0411 157.37 15.7766H162.121C162.073 15.0532 161.844 14.4986 161.435 14.1128C161.025 13.7149 160.489 13.516 159.827 13.516Z" fill="black"/>
<path d="M0 15C0 6.71573 6.71573 0 15 0C23.2843 0 30 6.71573 30 15C30 23.2843 23.2843 30 15 30C6.71573 30 0 23.2843 0 15Z" fill="#45B649"/>
<path d="M8.93716 14.1588C7.37286 11.5891 8.24385 8.33452 10.8826 6.8896L13.5671 11.2996C15.1314 13.8694 14.2604 17.1239 11.6217 18.5688L8.93716 14.1588Z" fill="white"/>
<path d="M19.2828 20.4571C21.8526 19.0499 22.7009 15.8804 21.1774 13.3777L16.2749 16.0622C13.705 17.4694 12.8568 20.639 14.3802 23.1417L19.2828 20.4571Z" fill="white"/>
</svg>
