<svg width="170" height="30" viewBox="0 0 170 30" fill="none" xmlns="http://www.w3.org/2000/svg">
<path d="M48.5058 8V19.1947C48.5058 19.8216 48.6082 20.2677 48.8129 20.533C49.0176 20.7982 49.3368 20.9309 49.7703 20.9309C50.0232 20.9309 50.2219 20.9188 50.3665 20.8947C50.523 20.8585 50.6856 20.7982 50.8542 20.7138L50.8 21.166C50.6675 21.2262 50.511 21.2745 50.3303 21.3106C50.1497 21.3589 49.9389 21.383 49.6981 21.383C49.132 21.383 48.7045 21.2142 48.4155 20.8766C48.1385 20.5269 48 19.9723 48 19.2128V8H48.5058Z" fill="black"/>
<path d="M56.0778 21.383C55.2589 21.383 54.5303 21.1961 53.892 20.8223C53.2537 20.4486 52.7479 19.9121 52.3746 19.2128C52.0133 18.5014 51.8327 17.6574 51.8327 16.6809C51.8327 15.7043 52.0133 14.8663 52.3746 14.167C52.7359 13.4557 53.2236 12.9131 53.8378 12.5394C54.4641 12.1656 55.1626 11.9787 55.9333 11.9787C57.1376 11.9787 58.077 12.3766 58.7514 13.1723C59.4378 13.9681 59.7811 15.0411 59.7811 16.3915C59.7811 16.4879 59.7751 16.5844 59.763 16.6809H52.3385C52.3385 17.573 52.495 18.3387 52.8081 18.9777C53.1333 19.6046 53.5729 20.0869 54.1269 20.4245C54.6929 20.7621 55.3372 20.9309 56.0598 20.9309C56.7824 20.9309 57.4267 20.7621 57.9927 20.4245C58.5587 20.0869 58.9923 19.6227 59.2933 19.0319L59.6907 19.2489C59.3656 19.9121 58.8839 20.4365 58.2456 20.8223C57.6073 21.1961 56.8847 21.383 56.0778 21.383ZM55.9333 12.4128C54.9699 12.4128 54.1509 12.7504 53.4765 13.4255C52.8142 14.1007 52.4408 15.0351 52.3565 16.2287H59.3114C59.2753 15.0833 58.9682 14.161 58.3901 13.4617C57.812 12.7624 56.9931 12.4128 55.9333 12.4128Z" fill="black"/>
<path d="M67.9642 15.1617C67.9642 14.3177 67.7293 13.6486 67.2597 13.1543C66.79 12.6599 66.1156 12.4128 65.2364 12.4128C64.5018 12.4128 63.8635 12.5755 63.3216 12.9011C62.7917 13.2266 62.3943 13.7511 62.1293 14.4745L61.7319 14.2032C61.9969 13.4557 62.4304 12.9011 63.0326 12.5394C63.6468 12.1656 64.3874 11.9787 65.2545 11.9787C66.2541 11.9787 67.0369 12.25 67.6029 12.7926C68.181 13.3351 68.47 14.1067 68.47 15.1074V19.7191C68.47 20.5149 68.8012 20.9128 69.4635 20.9128C69.7285 20.9128 69.9392 20.8645 70.0958 20.7681L70.0597 21.184C69.867 21.2926 69.6321 21.3468 69.3552 21.3468C69.1384 21.3468 68.9216 21.2986 68.7048 21.2021C68.4881 21.1177 68.3074 20.955 68.1629 20.7138C68.0304 20.4606 67.9642 20.105 67.9642 19.6468V19.4479C67.7715 19.894 67.4945 20.2617 67.1332 20.5511C66.7719 20.8284 66.3564 21.0394 65.8868 21.184C65.4291 21.3167 64.9715 21.383 64.5139 21.383C63.6227 21.383 62.9121 21.1901 62.3822 20.8043C61.8644 20.4184 61.6055 19.8578 61.6055 19.1223C61.6055 18.4472 61.8282 17.9167 62.2738 17.5309C62.7315 17.133 63.3758 16.8557 64.2068 16.6989L67.9642 15.9574V15.1617ZM62.1293 19.0862C62.1293 19.677 62.3401 20.1351 62.7616 20.4606C63.1831 20.7741 63.7913 20.9309 64.5861 20.9309C64.9354 20.9309 65.3027 20.8826 65.688 20.7862C66.0855 20.6777 66.4528 20.5149 66.79 20.2979C67.1392 20.0688 67.4222 19.7794 67.639 19.4298C67.8558 19.0681 67.9642 18.6401 67.9642 18.1457V16.3915L64.4958 17.0787C62.9181 17.3801 62.1293 18.0493 62.1293 19.0862Z" fill="black"/>
<path d="M75.287 21.383C74.468 21.383 73.7455 21.1961 73.1192 20.8223C72.505 20.4486 72.0233 19.9121 71.6741 19.2128C71.3248 18.5014 71.1502 17.6574 71.1502 16.6809C71.1502 15.6922 71.3248 14.8482 71.6741 14.1489C72.0353 13.4496 72.5291 12.9131 73.1554 12.5394C73.7816 12.1656 74.4982 11.9787 75.305 11.9787C76.1601 11.9787 76.9007 12.2138 77.527 12.684C78.1532 13.1422 78.5868 13.7872 78.8276 14.6191V8H79.3334V21.2021H78.8638L78.8457 18.6702C78.6169 19.5383 78.1773 20.2074 77.527 20.6777C76.8887 21.1479 76.142 21.383 75.287 21.383ZM75.3412 20.9309C76.0156 20.9309 76.6177 20.7621 77.1476 20.4245C77.6775 20.0748 78.087 19.5805 78.376 18.9415C78.6771 18.2904 78.8276 17.5309 78.8276 16.6628C78.8276 15.7947 78.6771 15.0472 78.376 14.4202C78.087 13.7812 77.6775 13.2869 77.1476 12.9372C76.6298 12.5876 76.0336 12.4128 75.3592 12.4128C74.2392 12.4128 73.342 12.7926 72.6676 13.5521C71.9932 14.2996 71.656 15.3426 71.656 16.6809C71.656 18.0191 71.9932 19.0621 72.6676 19.8096C73.342 20.5571 74.2332 20.9309 75.3412 20.9309Z" fill="black"/>
<path d="M86.0855 21.383C85.2666 21.383 84.538 21.1961 83.8997 20.8223C83.2614 20.4486 82.7556 19.9121 82.3823 19.2128C82.021 18.5014 81.8403 17.6574 81.8403 16.6809C81.8403 15.7043 82.021 14.8663 82.3823 14.167C82.7436 13.4557 83.2313 12.9131 83.8455 12.5394C84.4717 12.1656 85.1702 11.9787 85.941 11.9787C87.1453 11.9787 88.0846 12.3766 88.7591 13.1723C89.4455 13.9681 89.7887 15.0411 89.7887 16.3915C89.7887 16.4879 89.7827 16.5844 89.7707 16.6809H82.3461C82.3461 17.573 82.5027 18.3387 82.8158 18.9777C83.141 19.6046 83.5805 20.0869 84.1345 20.4245C84.7006 20.7621 85.3449 20.9309 86.0674 20.9309C86.79 20.9309 87.4343 20.7621 88.0003 20.4245C88.5664 20.0869 88.9999 19.6227 89.301 19.0319L89.6984 19.2489C89.3733 19.9121 88.8915 20.4365 88.2533 20.8223C87.615 21.1961 86.8924 21.383 86.0855 21.383ZM85.941 12.4128C84.9775 12.4128 84.1586 12.7504 83.4842 13.4255C82.8218 14.1007 82.4485 15.0351 82.3642 16.2287H89.3191C89.2829 15.0833 88.9758 14.161 88.3978 13.4617C87.8197 12.7624 87.0008 12.4128 85.941 12.4128Z" fill="black"/>
<path d="M92.2634 21.2021V12.1596H92.7151L92.7512 14.3479C92.9559 13.6727 93.3172 13.1121 93.8351 12.666C94.3529 12.2078 94.9731 11.9787 95.6957 11.9787C95.9848 11.9787 96.2256 12.0149 96.4183 12.0872C96.623 12.1596 96.7916 12.25 96.9241 12.3585L96.7435 12.7926C96.623 12.684 96.4845 12.5996 96.328 12.5394C96.1714 12.467 95.9306 12.4309 95.6054 12.4309C95.0755 12.4309 94.5938 12.5996 94.1602 12.9372C93.7387 13.2628 93.4015 13.6968 93.1486 14.2394C92.8957 14.7819 92.7693 15.3727 92.7693 16.0117V21.2021H92.2634Z" fill="black"/>
<path d="M101.31 21.383C100.383 21.383 99.5759 21.2021 98.8895 20.8404C98.2151 20.4667 97.7695 19.9181 97.5527 19.1947L98.0043 18.9234C98.185 19.5865 98.5703 20.0869 99.1605 20.4245C99.7626 20.7621 100.503 20.9309 101.382 20.9309C102.274 20.9309 102.984 20.75 103.514 20.3883C104.044 20.0266 104.309 19.5383 104.309 18.9234C104.309 18.5014 104.17 18.1457 103.893 17.8564C103.628 17.567 103.129 17.344 102.394 17.1872L100.317 16.7351C99.4736 16.5543 98.8714 16.2709 98.5101 15.8851C98.1488 15.4872 97.9682 15.023 97.9682 14.4926C97.9682 14.0223 98.1127 13.6004 98.4017 13.2266C98.6908 12.8408 99.0882 12.5394 99.594 12.3223C100.1 12.0933 100.684 11.9787 101.346 11.9787C102.262 11.9787 103.008 12.1596 103.586 12.5213C104.164 12.883 104.55 13.4376 104.742 14.1851L104.309 14.4564C104.14 13.7571 103.797 13.2447 103.279 12.9191C102.773 12.5816 102.129 12.4128 101.346 12.4128C100.503 12.4128 99.8108 12.6057 99.2688 12.9915C98.7389 13.3773 98.474 13.8535 98.474 14.4202C98.474 14.8422 98.6125 15.216 98.8895 15.5415C99.1785 15.855 99.6723 16.0901 100.371 16.2468L102.502 16.717C103.345 16.8979 103.942 17.1691 104.291 17.5309C104.64 17.8926 104.815 18.3447 104.815 18.8872C104.815 19.6589 104.496 20.2677 103.857 20.7138C103.231 21.1599 102.382 21.383 101.31 21.383Z" fill="black"/>
<path d="M107.258 21.2021V8H107.764V14.3479C107.981 13.6486 108.415 13.0759 109.065 12.6298C109.715 12.1837 110.48 11.9606 111.359 11.9606C112.383 11.9606 113.202 12.25 113.816 12.8287C114.442 13.3954 114.755 14.2092 114.755 15.2702V21.184H114.249V15.3968C114.249 14.4202 113.978 13.6787 113.437 13.1723C112.895 12.666 112.178 12.4128 111.287 12.4128C110.637 12.4128 110.04 12.5635 109.498 12.8649C108.969 13.1663 108.547 13.5823 108.234 14.1128C107.921 14.6312 107.764 15.216 107.764 15.867V21.2021H107.258Z" fill="black"/>
<path d="M118.026 10.3872C117.869 10.3872 117.736 10.339 117.628 10.2426C117.532 10.1461 117.484 10.0195 117.484 9.86277C117.484 9.70603 117.532 9.57943 117.628 9.48298C117.736 9.38653 117.869 9.3383 118.026 9.3383C118.17 9.3383 118.29 9.38653 118.387 9.48298C118.495 9.57943 118.549 9.70603 118.549 9.86277C118.549 10.0195 118.495 10.1461 118.387 10.2426C118.29 10.339 118.17 10.3872 118.026 10.3872ZM118.278 12.1596V21.2021H117.773V12.1596H118.278Z" fill="black"/>
<path d="M121.407 25V12.1596H121.876L121.894 14.6372C122.135 13.8053 122.581 13.1543 123.231 12.684C123.882 12.2138 124.64 11.9787 125.507 11.9787C126.314 11.9787 127.025 12.1656 127.639 12.5394C128.253 12.9131 128.729 13.4496 129.066 14.1489C129.415 14.8482 129.59 15.6922 129.59 16.6809C129.59 17.6574 129.415 18.5014 129.066 19.2128C128.729 19.9121 128.253 20.4486 127.639 20.8223C127.025 21.1961 126.314 21.383 125.507 21.383C124.64 21.383 123.882 21.1539 123.231 20.6957C122.593 20.2376 122.153 19.5926 121.913 18.7606V25H121.407ZM125.435 20.9309C126.543 20.9309 127.428 20.5571 128.091 19.8096C128.753 19.0621 129.084 18.0191 129.084 16.6809C129.084 15.3426 128.753 14.2996 128.091 13.5521C127.44 12.7926 126.555 12.4128 125.435 12.4128C124.761 12.4128 124.159 12.5876 123.629 12.9372C123.099 13.2869 122.677 13.7812 122.364 14.4202C122.063 15.0592 121.913 15.8128 121.913 16.6809C121.913 17.5489 122.063 18.3025 122.364 18.9415C122.665 19.5805 123.081 20.0748 123.611 20.4245C124.14 20.7621 124.749 20.9309 125.435 20.9309Z" fill="black"/>
<path d="M143.532 12.1596H145.627L142.592 21.2021H140.479L138.203 14.4926L136.053 21.2021H133.939L130.923 12.1596H133L135.059 19.3032L137.299 12.1596H139.232L141.472 19.3032L143.532 12.1596Z" fill="black"/>
<path d="M148.472 10.6404C148.05 10.6404 147.725 10.5379 147.496 10.333C147.28 10.116 147.171 9.81454 147.171 9.42872C147.171 9.04291 147.28 8.74752 147.496 8.54255C147.725 8.33759 148.05 8.23511 148.472 8.23511C148.881 8.23511 149.194 8.33759 149.411 8.54255C149.64 8.74752 149.754 9.04291 149.754 9.42872C149.754 9.81454 149.64 10.116 149.411 10.333C149.194 10.5379 148.881 10.6404 148.472 10.6404ZM149.429 12.1596V21.2021H147.496V12.1596H149.429Z" fill="black"/>
<path d="M155.886 21.383C154.983 21.383 154.158 21.2082 153.411 20.8585C152.664 20.5089 152.074 20.0145 151.641 19.3755L152.977 18.2181C153.242 18.7124 153.622 19.1103 154.115 19.4117C154.621 19.7011 155.223 19.8457 155.922 19.8457C156.476 19.8457 156.915 19.7493 157.241 19.5564C157.566 19.3635 157.728 19.0922 157.728 18.7426C157.728 18.5135 157.65 18.3145 157.494 18.1457C157.349 17.9649 157.066 17.8262 156.644 17.7298L154.748 17.3319C153.784 17.139 153.098 16.8255 152.688 16.3915C152.279 15.9574 152.074 15.4149 152.074 14.7638C152.074 14.2695 152.219 13.8113 152.508 13.3894C152.809 12.9674 153.236 12.6298 153.79 12.3766C154.344 12.1113 155.013 11.9787 155.795 11.9787C156.687 11.9787 157.451 12.1415 158.09 12.467C158.74 12.7805 159.234 13.2326 159.571 13.8234L158.234 14.9447C157.993 14.4624 157.65 14.1067 157.204 13.8777C156.771 13.6365 156.313 13.516 155.832 13.516C155.241 13.516 154.784 13.6245 154.459 13.8415C154.146 14.0465 153.989 14.3177 153.989 14.6553C153.989 14.8844 154.079 15.0954 154.26 15.2883C154.441 15.4691 154.766 15.6078 155.235 15.7043L157.295 16.1383C158.162 16.3071 158.77 16.5965 159.119 17.0064C159.481 17.4043 159.661 17.8926 159.661 18.4713C159.661 19.3394 159.324 20.0447 158.65 20.5872C157.975 21.1177 157.054 21.383 155.886 21.383Z" fill="black"/>
<path d="M165.972 21.383C165.068 21.383 164.274 21.1961 163.587 20.8223C162.913 20.4486 162.383 19.9121 161.997 19.2128C161.612 18.5014 161.419 17.6574 161.419 16.6809C161.419 15.7043 161.606 14.8663 161.979 14.167C162.365 13.4557 162.889 12.9131 163.551 12.5394C164.225 12.1656 164.996 11.9787 165.863 11.9787C166.742 11.9787 167.489 12.1596 168.103 12.5213C168.717 12.883 169.187 13.3773 169.512 14.0043C169.837 14.6312 170 15.3426 170 16.1383C170 16.3674 169.994 16.5784 169.982 16.7713C169.97 16.9642 169.952 17.1269 169.928 17.2596H163.316C163.4 18.1035 163.671 18.7486 164.129 19.1947C164.599 19.6287 165.201 19.8457 165.935 19.8457C166.538 19.8457 167.025 19.7312 167.399 19.5021C167.772 19.273 168.067 18.9535 168.284 18.5436L169.819 19.267C169.506 19.9301 169.006 20.4486 168.32 20.8223C167.646 21.1961 166.863 21.383 165.972 21.383ZM165.827 13.516C165.165 13.516 164.617 13.7089 164.183 14.0947C163.762 14.4805 163.491 15.0411 163.37 15.7766H168.121C168.073 15.0532 167.844 14.4986 167.435 14.1128C167.025 13.7149 166.489 13.516 165.827 13.516Z" fill="black"/>
<path d="M0 15C0 6.71573 6.71573 0 15 0C23.2843 0 30 6.71573 30 15C30 23.2843 23.2843 30 15 30C6.71573 30 0 23.2843 0 15Z" fill="#45B649"/>
<path d="M8.93716 14.1588C7.37286 11.5891 8.24385 8.33452 10.8826 6.8896L13.5671 11.2996C15.1314 13.8694 14.2604 17.1239 11.6217 18.5688L8.93716 14.1588Z" fill="white"/>
<path d="M19.2828 20.4571C21.8526 19.0499 22.7009 15.8804 21.1774 13.3777L16.2749 16.0622C13.705 17.4694 12.8568 20.639 14.3802 23.1417L19.2828 20.4571Z" fill="white"/>
</svg>
