<svg width="30" height="30" viewBox="0 0 30 30" fill="none" xmlns="http://www.w3.org/2000/svg">
<path d="M0 15C0 6.71573 6.71573 0 15 0C23.2843 0 30 6.71573 30 15C30 23.2843 23.2843 30 15 30C6.71573 30 0 23.2843 0 15Z" fill="#45B649"/>
<path d="M8.93716 14.1588C7.37286 11.5891 8.24385 8.33452 10.8826 6.8896L13.5671 11.2996C15.1314 13.8694 14.2604 17.1239 11.6217 18.5688L8.93716 14.1588Z" fill="white"/>
<path d="M19.2828 20.4571C21.8526 19.0499 22.7009 15.8804 21.1774 13.3777L16.2749 16.0622C13.705 17.4694 12.8568 20.639 14.3802 23.1417L19.2828 20.4571Z" fill="white"/>
</svg>
